<mxfile host="app.diagrams.net" modified="2021-05-31T17:57:41.798Z" agent="5.0 (Macintosh; Intel Mac OS X 10_15_5) AppleWebKit/537.36 (KHTML, like Gecko) Chrome/90.0.4430.212 Safari/537.36" etag="BEe1JN9-jHjnriJOBHnf" version="14.7.3" type="github">
  <diagram id="XUj2ENyhS2ARooJv0qg7" name="Page-1">
    <mxGraphModel dx="1186" dy="719" grid="1" gridSize="10" guides="1" tooltips="1" connect="1" arrows="1" fold="1" page="1" pageScale="1" pageWidth="827" pageHeight="1169" math="0" shadow="0">
      <root>
        <mxCell id="0" />
        <mxCell id="1" parent="0" />
        <mxCell id="VjTj9eyjBaNBBCIU912L-1" value="" style="rounded=1;whiteSpace=wrap;html=1;" vertex="1" parent="1">
          <mxGeometry x="55" y="110" width="235" height="40" as="geometry" />
        </mxCell>
        <mxCell id="VjTj9eyjBaNBBCIU912L-4" value="&lt;b&gt;&lt;font style=&quot;font-size: 16px&quot;&gt;Server Side Templating&lt;/font&gt;&lt;/b&gt;" style="text;html=1;resizable=0;autosize=1;align=center;verticalAlign=middle;points=[];fillColor=none;strokeColor=none;rounded=0;" vertex="1" parent="1">
          <mxGeometry x="77.5" y="60" width="190" height="20" as="geometry" />
        </mxCell>
        <mxCell id="VjTj9eyjBaNBBCIU912L-5" value="&lt;span style=&quot;font-size: 16px&quot;&gt;&lt;b&gt;User Visits Page&lt;/b&gt;&lt;/span&gt;" style="text;html=1;resizable=0;autosize=1;align=center;verticalAlign=middle;points=[];fillColor=none;strokeColor=none;rounded=0;" vertex="1" parent="1">
          <mxGeometry x="102.5" y="120" width="140" height="20" as="geometry" />
        </mxCell>
        <mxCell id="VjTj9eyjBaNBBCIU912L-6" value="" style="rounded=1;whiteSpace=wrap;html=1;" vertex="1" parent="1">
          <mxGeometry x="55" y="190" width="235" height="40" as="geometry" />
        </mxCell>
        <mxCell id="VjTj9eyjBaNBBCIU912L-7" value="&lt;span style=&quot;font-size: 16px&quot;&gt;&lt;b&gt;HTTP Request to Server&lt;/b&gt;&lt;/span&gt;" style="text;html=1;resizable=0;autosize=1;align=center;verticalAlign=middle;points=[];fillColor=none;strokeColor=none;rounded=0;" vertex="1" parent="1">
          <mxGeometry x="72.5" y="200" width="200" height="20" as="geometry" />
        </mxCell>
        <mxCell id="VjTj9eyjBaNBBCIU912L-8" value="" style="rounded=1;whiteSpace=wrap;html=1;" vertex="1" parent="1">
          <mxGeometry x="55" y="270" width="235" height="40" as="geometry" />
        </mxCell>
        <mxCell id="VjTj9eyjBaNBBCIU912L-9" value="&lt;b style=&quot;font-size: 16px&quot;&gt;NEW HTML Document&lt;/b&gt;" style="text;html=1;resizable=0;autosize=1;align=center;verticalAlign=middle;points=[];fillColor=none;strokeColor=none;rounded=0;" vertex="1" parent="1">
          <mxGeometry x="82.5" y="280" width="180" height="20" as="geometry" />
        </mxCell>
        <mxCell id="VjTj9eyjBaNBBCIU912L-10" value="" style="rounded=1;whiteSpace=wrap;html=1;" vertex="1" parent="1">
          <mxGeometry x="55" y="350" width="235" height="40" as="geometry" />
        </mxCell>
        <mxCell id="VjTj9eyjBaNBBCIU912L-11" value="&lt;span style=&quot;font-size: 16px&quot;&gt;&lt;b&gt;User Clicks a Link&lt;/b&gt;&lt;/span&gt;" style="text;html=1;resizable=0;autosize=1;align=center;verticalAlign=middle;points=[];fillColor=none;strokeColor=none;rounded=0;" vertex="1" parent="1">
          <mxGeometry x="92.5" y="360" width="150" height="20" as="geometry" />
        </mxCell>
        <mxCell id="VjTj9eyjBaNBBCIU912L-12" value="" style="rounded=1;whiteSpace=wrap;html=1;" vertex="1" parent="1">
          <mxGeometry x="55" y="430" width="235" height="40" as="geometry" />
        </mxCell>
        <mxCell id="VjTj9eyjBaNBBCIU912L-14" value="&lt;span style=&quot;font-size: 16px&quot;&gt;&lt;b&gt;HTTP Request to Server&lt;/b&gt;&lt;/span&gt;" style="text;html=1;resizable=0;autosize=1;align=center;verticalAlign=middle;points=[];fillColor=none;strokeColor=none;rounded=0;" vertex="1" parent="1">
          <mxGeometry x="72.5" y="440" width="200" height="20" as="geometry" />
        </mxCell>
        <mxCell id="VjTj9eyjBaNBBCIU912L-15" value="" style="rounded=1;whiteSpace=wrap;html=1;" vertex="1" parent="1">
          <mxGeometry x="55" y="510" width="235" height="40" as="geometry" />
        </mxCell>
        <mxCell id="VjTj9eyjBaNBBCIU912L-16" value="&lt;b style=&quot;font-size: 16px&quot;&gt;NEW HTML Document&lt;/b&gt;" style="text;html=1;resizable=0;autosize=1;align=center;verticalAlign=middle;points=[];fillColor=none;strokeColor=none;rounded=0;" vertex="1" parent="1">
          <mxGeometry x="82.5" y="520" width="180" height="20" as="geometry" />
        </mxCell>
        <mxCell id="VjTj9eyjBaNBBCIU912L-17" value="" style="endArrow=none;html=1;shape=link;" edge="1" parent="1">
          <mxGeometry width="50" height="50" relative="1" as="geometry">
            <mxPoint x="414" y="620" as="sourcePoint" />
            <mxPoint x="414" y="50" as="targetPoint" />
          </mxGeometry>
        </mxCell>
        <mxCell id="VjTj9eyjBaNBBCIU912L-18" value="" style="rounded=1;whiteSpace=wrap;html=1;" vertex="1" parent="1">
          <mxGeometry x="507.5" y="110" width="235" height="40" as="geometry" />
        </mxCell>
        <mxCell id="VjTj9eyjBaNBBCIU912L-19" value="&lt;span style=&quot;font-size: 16px&quot;&gt;&lt;b&gt;Single Page App(React/Angular)&lt;/b&gt;&lt;/span&gt;" style="text;html=1;resizable=0;autosize=1;align=center;verticalAlign=middle;points=[];fillColor=none;strokeColor=none;rounded=0;" vertex="1" parent="1">
          <mxGeometry x="495" y="60" width="260" height="20" as="geometry" />
        </mxCell>
        <mxCell id="VjTj9eyjBaNBBCIU912L-20" value="&lt;span style=&quot;font-size: 16px&quot;&gt;&lt;b&gt;User Visits Page&lt;/b&gt;&lt;/span&gt;" style="text;html=1;resizable=0;autosize=1;align=center;verticalAlign=middle;points=[];fillColor=none;strokeColor=none;rounded=0;" vertex="1" parent="1">
          <mxGeometry x="555" y="120" width="140" height="20" as="geometry" />
        </mxCell>
        <mxCell id="VjTj9eyjBaNBBCIU912L-21" value="" style="rounded=1;whiteSpace=wrap;html=1;" vertex="1" parent="1">
          <mxGeometry x="507.5" y="190" width="235" height="40" as="geometry" />
        </mxCell>
        <mxCell id="VjTj9eyjBaNBBCIU912L-22" value="&lt;span style=&quot;font-size: 16px&quot;&gt;&lt;b&gt;HTTP Request to Server&lt;/b&gt;&lt;/span&gt;" style="text;html=1;resizable=0;autosize=1;align=center;verticalAlign=middle;points=[];fillColor=none;strokeColor=none;rounded=0;" vertex="1" parent="1">
          <mxGeometry x="525" y="200" width="200" height="20" as="geometry" />
        </mxCell>
        <mxCell id="VjTj9eyjBaNBBCIU912L-24" value="" style="shape=singleArrow;direction=south;whiteSpace=wrap;html=1;" vertex="1" parent="1">
          <mxGeometry x="152.5" y="150" width="40" height="40" as="geometry" />
        </mxCell>
        <mxCell id="VjTj9eyjBaNBBCIU912L-25" value="" style="shape=singleArrow;direction=south;whiteSpace=wrap;html=1;" vertex="1" parent="1">
          <mxGeometry x="152.5" y="230" width="40" height="40" as="geometry" />
        </mxCell>
        <mxCell id="VjTj9eyjBaNBBCIU912L-27" value="" style="shape=singleArrow;direction=south;whiteSpace=wrap;html=1;" vertex="1" parent="1">
          <mxGeometry x="152.5" y="310" width="40" height="40" as="geometry" />
        </mxCell>
        <mxCell id="VjTj9eyjBaNBBCIU912L-28" value="" style="shape=singleArrow;direction=south;whiteSpace=wrap;html=1;" vertex="1" parent="1">
          <mxGeometry x="152.5" y="390" width="40" height="40" as="geometry" />
        </mxCell>
        <mxCell id="VjTj9eyjBaNBBCIU912L-29" value="" style="shape=singleArrow;direction=south;whiteSpace=wrap;html=1;" vertex="1" parent="1">
          <mxGeometry x="152.5" y="470" width="40" height="40" as="geometry" />
        </mxCell>
        <mxCell id="VjTj9eyjBaNBBCIU912L-31" value="" style="rounded=1;whiteSpace=wrap;html=1;" vertex="1" parent="1">
          <mxGeometry x="507.5" y="270" width="235" height="40" as="geometry" />
        </mxCell>
        <mxCell id="VjTj9eyjBaNBBCIU912L-32" value="&lt;b style=&quot;font-size: 16px&quot;&gt;NEW HTML Document&lt;/b&gt;" style="text;html=1;resizable=0;autosize=1;align=center;verticalAlign=middle;points=[];fillColor=none;strokeColor=none;rounded=0;" vertex="1" parent="1">
          <mxGeometry x="535" y="280" width="180" height="20" as="geometry" />
        </mxCell>
        <mxCell id="VjTj9eyjBaNBBCIU912L-34" value="" style="rounded=1;whiteSpace=wrap;html=1;" vertex="1" parent="1">
          <mxGeometry x="450" y="350" width="350" height="40" as="geometry" />
        </mxCell>
        <mxCell id="VjTj9eyjBaNBBCIU912L-35" value="&lt;span style=&quot;font-size: 16px&quot;&gt;&lt;b&gt;React/Angular Boots Up and Shows Page&lt;/b&gt;&lt;/span&gt;" style="text;html=1;resizable=0;autosize=1;align=center;verticalAlign=middle;points=[];fillColor=none;strokeColor=none;rounded=0;" vertex="1" parent="1">
          <mxGeometry x="460" y="360" width="330" height="20" as="geometry" />
        </mxCell>
        <mxCell id="VjTj9eyjBaNBBCIU912L-38" value="" style="rounded=1;whiteSpace=wrap;html=1;" vertex="1" parent="1">
          <mxGeometry x="507.5" y="430" width="235" height="40" as="geometry" />
        </mxCell>
        <mxCell id="VjTj9eyjBaNBBCIU912L-39" value="&lt;span style=&quot;font-size: 16px&quot;&gt;&lt;b&gt;User Clicks a Link&lt;/b&gt;&lt;/span&gt;" style="text;html=1;resizable=0;autosize=1;align=center;verticalAlign=middle;points=[];fillColor=none;strokeColor=none;rounded=0;" vertex="1" parent="1">
          <mxGeometry x="545" y="440" width="150" height="20" as="geometry" />
        </mxCell>
        <mxCell id="VjTj9eyjBaNBBCIU912L-40" value="" style="rounded=1;whiteSpace=wrap;html=1;" vertex="1" parent="1">
          <mxGeometry x="450" y="510" width="350" height="40" as="geometry" />
        </mxCell>
        <mxCell id="VjTj9eyjBaNBBCIU912L-41" value="&lt;span style=&quot;font-size: 16px&quot;&gt;&lt;b&gt;React/Angular Shows New Content&lt;/b&gt;&lt;/span&gt;" style="text;html=1;resizable=0;autosize=1;align=center;verticalAlign=middle;points=[];fillColor=none;strokeColor=none;rounded=0;" vertex="1" parent="1">
          <mxGeometry x="485" y="520" width="280" height="20" as="geometry" />
        </mxCell>
        <mxCell id="VjTj9eyjBaNBBCIU912L-42" value="" style="shape=singleArrow;direction=south;whiteSpace=wrap;html=1;" vertex="1" parent="1">
          <mxGeometry x="600" y="150" width="40" height="40" as="geometry" />
        </mxCell>
        <mxCell id="VjTj9eyjBaNBBCIU912L-43" value="" style="shape=singleArrow;direction=south;whiteSpace=wrap;html=1;" vertex="1" parent="1">
          <mxGeometry x="605" y="310" width="40" height="40" as="geometry" />
        </mxCell>
        <mxCell id="VjTj9eyjBaNBBCIU912L-44" value="" style="shape=singleArrow;direction=south;whiteSpace=wrap;html=1;fontStyle=1" vertex="1" parent="1">
          <mxGeometry x="600" y="230" width="40" height="40" as="geometry" />
        </mxCell>
        <mxCell id="VjTj9eyjBaNBBCIU912L-45" value="" style="shape=singleArrow;direction=south;whiteSpace=wrap;html=1;" vertex="1" parent="1">
          <mxGeometry x="605" y="390" width="40" height="40" as="geometry" />
        </mxCell>
        <mxCell id="VjTj9eyjBaNBBCIU912L-46" value="" style="shape=singleArrow;direction=south;whiteSpace=wrap;html=1;" vertex="1" parent="1">
          <mxGeometry x="605" y="470" width="40" height="40" as="geometry" />
        </mxCell>
      </root>
    </mxGraphModel>
  </diagram>
</mxfile>
